<svg width="192" height="192" viewBox="0 0 192 192" fill="none" xmlns="http://www.w3.org/2000/svg">
<rect x="0" y="0" width="192" height="192" rx="38.4" fill="#2c3e50"/>
<g fill="#ecf0f1">
    <rect x="48" y="48" width="96" height="24" rx="4"/>
    <rect x="48" y="88" width="24" height="24" rx="4"/>
    <rect x="84" y="88" width="24" height="24" rx="4"/>
    <rect x="120" y="88" width="24" height="24" rx="4"/>
    <rect x="48" y="124" width="24" height="24" rx="4"/>
    <rect x="84" y="124" width="24" height="24" rx="4"/>
    <rect x="120" y="124" width="24" height="24" rx="4" transform="rotate(90 120 124)" width="24" height="24"/>
    <rect x="120" y="124" width="24" height="24" rx="4"/>
    <rect x="120" y="124" width="24" height="24" rx="4" transform="rotate(90 120 124)" width="24" height="24"/>
    <rect x="84" y="124" width="24" height="24" rx="4"/>
    <rect x="120" y="124" width="24" height="24" rx="4"/>

    <rect x="120" y="124" width="24" height="52" rx="4" /> <!-- Equals button vertical stretch -->
    <rect x="84" y="160" width="24" height="24" rx="4"/>
    <rect x="48" y="160" width="24" height="24" rx="4"/>

    <!-- Plus/Minus/Multiply/Divide symbols from general calculator layout -->
    <rect x="120" y="88" width="24" height="24" rx="4" fill="#f39c12"/>
    <rect x="120" y="48" width="24" height="24" rx="4" fill="#f39c12"/>
    <rect x="120" y="160" width="24" height="24" rx="4" fill="#27ae60"/>

    <!-- A simple Bengali numeral for a calculator feel, e.g., 'Calculator' -->
    <text x="60" y="178" font-family="sans-serif" font-size="20" font-weight="bold" fill="#ecf0f1">গোসক</text>
</g>

<rect x="48" y="48" width="96" height="24" rx="4" fill="#34495e"/>
<rect x="48" y="48" width="96" height="24" rx="4" fill="#34495e"/>
<rect x="120" y="48" width="24" height="24" rx="4" fill="#f39c12"/>
<rect x="120" y="84" width="24" height="24" rx="4" fill="#f39c12"/>
<rect x="120" y="120" width="24" height="24" rx="4" fill="#f39c12"/>
<rect x="120" y="156" width="24" height="24" rx="4" fill="#27ae60"/>

<text x="60" y="70" font-family="sans-serif" font-size="20" fill="#ecf0f1" text-anchor="start">০</text>
<text x="128" y="66" font-family="sans-serif" font-size="14" fill="#fff" text-anchor="middle">÷</text>
<text x="128" y="102" font-family="sans-serif" font-size="14" fill="#fff" text-anchor="middle">×</text>
<text x="128" y="138" font-family="sans-serif" font-size="16" fill="#fff" text-anchor="middle">―</text>
<text x="128" y="174" font-family="sans-serif" font-size="14" fill="#fff" text-anchor="middle">=</text>

<text x="58" y="107" font-family="sans-serif" font-size="14" fill="#ecf0f1" text-anchor="middle">৭</text>
<text x="94" y="107" font-family="sans-serif" font-size="14" fill="#ecf0f1" text-anchor="middle">৮</text>
<text x="58" y="143" font-family="sans-serif" font-size="14" fill="#ecf0f1" text-anchor="middle">৪</text>
<text x="94" y="143" font-family="sans-serif" font-size="14" fill="#ecf0f1" text-anchor="middle">৫</text>

</svg>
